<?xml version="1.0" encoding="UTF-8" standalone="no"?>
<svg
   xmlns:dc="http://purl.org/dc/elements/1.1/"
   xmlns:cc="http://creativecommons.org/ns#"
   xmlns:rdf="http://www.w3.org/1999/02/22-rdf-syntax-ns#"
   xmlns:svg="http://www.w3.org/2000/svg"
   xmlns="http://www.w3.org/2000/svg"
   xmlns:sodipodi="http://sodipodi.sourceforge.net/DTD/sodipodi-0.dtd"
   xmlns:inkscape="http://www.inkscape.org/namespaces/inkscape"
   width="100mm"
   height="100mm"
   viewBox="0 0 100 100"
   version="1.1"
   id="svg8"
   inkscape:version="1.0.1 (3bc2e813f5, 2020-09-07)"
   sodipodi:docname="logo.svg"
   inkscape:export-filename="/home/facundo/devel/reps/pyempaq/resources/logo-256.png"
   inkscape:export-xdpi="65.019997"
   inkscape:export-ydpi="65.019997">
  <defs
     id="defs2" />
  <sodipodi:namedview
     id="base"
     pagecolor="#ffffff"
     bordercolor="#666666"
     borderopacity="1.0"
     inkscape:pageopacity="0.0"
     inkscape:pageshadow="2"
     inkscape:zoom="0.7"
     inkscape:cx="555.91271"
     inkscape:cy="410.62207"
     inkscape:document-units="mm"
     inkscape:current-layer="layer1"
     inkscape:document-rotation="0"
     showgrid="false"
     inkscape:window-width="2560"
     inkscape:window-height="1339"
     inkscape:window-x="0"
     inkscape:window-y="36"
     inkscape:window-maximized="1" />
  <metadata
     id="metadata5">
    <rdf:RDF>
      <cc:Work
         rdf:about="">
        <dc:format>image/svg+xml</dc:format>
        <dc:type
           rdf:resource="http://purl.org/dc/dcmitype/StillImage" />
        <dc:title />
      </cc:Work>
    </rdf:RDF>
  </metadata>
  <g
     inkscape:label="Capa 1"
     inkscape:groupmode="layer"
     id="layer1">
    <path
       style="fill:#000000;stroke-width:0.13752"
       d="m 85.853357,83.485859 c -2.16505,1.22246 -3.747633,0.855279 -4.667717,-1.082972 -1.038651,-2.188034 -2.809534,-3.703719 -5.636533,-4.824275 -1.864144,-0.738899 -2.735162,-1.432704 -3.314608,-2.640253 -0.672121,-1.400661 -1.268684,-1.804886 -3.025668,-2.050156 -1.345655,-0.187848 -1.865641,-0.554052 -2.602809,-1.833036 -0.911747,-1.581866 -1.502582,-2.039611 -3.395297,-2.630461 -1.88745,-0.589203 -2.380018,-1.020912 -3.182147,-2.789015 -0.549789,-1.211862 -2.020431,-2.899593 -2.708041,-3.107789 -0.605975,-0.183471 -0.587061,-0.209538 2.107336,-2.90394 3.312514,-3.312508 3.801834,-4.177185 3.491827,-6.170396 -0.142207,-0.914379 -0.190493,-0.904743 1.34199,-0.267914 5.80662,2.412979 11.114846,6.112804 20.370906,14.198515 3.221865,2.814488 3.557665,3.027799 6.175325,3.922757 3.71782,1.271095 4.16311,2.34547 2.11884,5.112207 -1.00402,1.358847 -6.25443,6.604305 -7.073378,7.066759 z M 41.996963,74.409241 C 39.124628,75.370978 36.202858,71.96 37.649321,69.333656 c 0.166027,-0.301457 3.278174,-3.461239 9.425212,-9.569482 9.177341,-9.119423 9.177341,-9.119423 9.947609,-9.3011 2.743306,-0.647048 5.266041,2.323161 4.192924,4.936638 -0.429028,1.044842 -18.26983,18.692022 -19.218103,19.009529 z M 60.674695,54.882647 c 0.809135,-2.063776 -1.587485,-4.418617 -3.7695,-3.703783 -0.973208,0.318823 -18.734433,18.380696 -18.906572,19.226605 -0.399664,1.963964 1.760685,3.997322 3.656793,3.441836 0.933939,-0.273608 18.595927,-17.884877 19.019268,-18.964652 z M 33.543494,79.181061 c -3.23092,2.078489 -7.733438,0.952064 -9.56198,-2.392176 -0.834394,-1.526038 -0.763965,-1.514811 2.336101,0.37254 3.618746,2.203133 4.286008,2.417997 5.850561,1.883983 3.518724,-1.20102 3.956501,-7.294648 0.781981,-10.884819 -1.218254,-1.377766 -0.289806,-1.095026 1.379016,0.419957 3.364674,3.054494 2.98518,8.174685 -0.785679,10.600515 z M 31.91438,77.584293 c -1.152588,0.496815 -1.414749,0.387442 -6.707738,-2.798469 -7.276374,-4.379726 -7.386247,-4.578936 -6.086468,-11.035379 0.736327,-3.657548 1.021631,-4.164243 2.360928,-4.192929 0.953157,-0.02043 1.105769,0.10914 6.14909,5.219907 4.684907,4.747537 4.684907,4.747537 5.130847,5.707367 1.408954,3.032492 1.019889,6.294937 -0.846659,7.099503 z M 31.264874,73.487 c 0,-0.620274 -0.04365,-0.71945 -0.454885,-1.033407 -1.02682,-0.783953 -2.388642,-0.113797 -2.318077,1.140733 0.105388,1.873817 2.772966,1.770576 2.772962,-0.107326 z M 22.59976,61.745638 c -3e-6,-1.121008 -1.440197,-1.345296 -1.764327,-0.274767 -0.204264,0.674646 0.558245,1.393707 1.191396,1.123477 0.484585,-0.206814 0.572946,-0.337705 0.572946,-0.848725 z M 57.838008,48.860776 c -1.98672,-0.03186 -1.509396,-0.432084 -12.016928,10.075452 -9.447135,9.447136 -9.447135,9.447136 -10.469997,8.525166 -1.283925,-1.157272 -2.28651,-1.654326 -3.988641,-1.977426 -1.274108,-0.241856 -1.274108,-0.241856 -4.795802,-3.707913 -3.947702,-3.885371 -3.900839,-3.855339 -5.656073,-3.619081 -0.709119,0.09545 -0.709119,0.09545 0.193117,-4.550598 1.068789,-5.503767 0.999458,-5.319455 1.684883,-4.479217 1.621329,1.987525 5.539298,4.515247 8.572636,5.530733 8.824073,2.954065 18.90386,-0.464528 23.884401,-8.100473 0.422265,-0.647396 0.785761,-1.177922 0.807783,-1.17894 0.06579,-0.0031 2.159032,2.879835 2.322622,3.198797 0.149078,0.290667 0.141983,0.294404 -0.538001,0.2835 z M 50.44989,49.73552 C 38.754234,59.498533 20.897961,52.566573 18.929248,37.498944 17.449843,26.176246 26.13454,16.070316 37.565229,15.813223 c 15.248255,-0.342957 24.817993,16.317933 16.831072,29.302863 -0.614458,0.998974 -2.577543,3.513297 -2.988203,3.82729 -0.06061,0.04636 -0.491809,0.402816 -0.958208,0.792144 z m 1.038751,-5.432666 C 58.323164,34.507857 52.286066,20.565827 40.477871,18.874669 24.82664,16.633116 15.363774,35.466105 26.540053,46.613709 c 7.230576,7.212053 19.06903,6.115513 24.948588,-2.310855 z m -3.562244,2.811928 c -0.09952,0.06093 -0.562252,0.385853 -1.028255,0.722098 -8.248874,5.951906 -20.34531,1.969957 -23.625538,-7.777133 -3.996981,-11.876912 6.796597,-23.350641 18.883468,-20.073398 10.148627,2.751705 14.675457,14.672515 8.952357,23.573853 -0.496206,0.771764 -2.751529,3.291129 -3.182032,3.55458 z m 2.174805,-5.073226 C 55.536193,32.802731 48.737949,21.071415 37.957119,21.085239 26.157059,21.100377 19.72188,35.055356 27.373628,44.036011 c 6.265125,7.353212 17.825342,6.338744 22.727574,-1.994455 z m -5.187654,3.401421 c -1.167242,0.751097 -2.238478,1.246608 -3.438011,1.59028 -0.919239,0.263371 -1.453094,0.295347 -1.231512,0.07376 0.02882,-0.02882 0.643445,-0.998925 1.365879,-2.155843 1.90548,-3.05146 3.189217,-4.730348 5.455484,-7.134732 1.970676,-2.090777 1.970676,-2.090777 2.574827,-1.35165 0.696481,0.852087 0.714626,1.063022 0.218643,2.541818 -0.838658,2.5005 -2.804094,5.058533 -4.94531,6.436365 z m -7.568114,2.047767 c -1.778561,-0.05938 -3.233026,-0.46217 -3.350569,-0.927879 -0.0554,-0.219495 -0.307878,-1.24214 -0.561064,-2.272544 -1.137681,-4.63009 -2.443463,-7.980958 -4.853658,-12.455363 -1.739152,-3.228653 -1.730214,-2.847248 -0.113742,-4.853797 1.148483,-1.425629 1.032796,-1.385198 2.609157,-0.911875 5.558554,1.669025 9.53836,2.298683 15.333324,2.425944 2.411683,0.05296 2.339004,0.02469 2.878331,1.119438 1.235579,2.508026 1.201654,2.652994 -1.162163,4.966838 -3.89736,3.814959 -5.855775,6.338763 -9.004274,11.603765 -0.400193,0.669216 -0.754556,1.243689 -0.787476,1.276611 -0.03293,0.03295 -0.477458,0.04589 -0.987866,0.02885 z m 5.296352,-10.18846 c 2.670239,-5.364879 -4.540218,-10.141992 -8.504246,-5.634282 -3.661765,4.163993 1.190487,10.421707 6.193938,7.988016 0.922593,-0.448754 1.81433,-1.357249 2.3103,-2.353742 z m -3.447817,1.030977 c -1.42711,0.465995 -2.593363,0.179544 -3.667223,-0.900733 -2.802296,-2.819055 0.760811,-7.432827 4.226847,-5.47322 2.600117,1.470043 2.250117,5.456487 -0.559624,6.373953 z m -7.931359,7.204456 c -2.876719,-1.816968 -5.533857,-5.75291 -4.800157,-7.110339 0.628774,-1.163306 1.876665,-3.162757 2.038176,-3.265697 0.457444,-0.291554 4.219614,10.522889 3.804984,10.937519 -0.03278,0.03278 -0.502149,-0.219874 -1.043003,-0.561483 z M 11.857629,56.166138 C 5.4454241,49.75393 5.4399521,49.747724 6.2057451,49.57416 6.7397841,49.453165 18.119706,60.916773 18.049449,61.504962 c -0.03031,0.253759 -0.09297,0.499237 -0.139238,0.545501 -0.04643,0.04641 -2.758684,-2.590428 -6.052582,-5.884325 z"
       id="path847" />
  </g>
</svg>
