<?xml version="1.0" encoding="UTF-8" standalone="no"?>
<svg
   xmlns:dc="http://purl.org/dc/elements/1.1/"
   xmlns:cc="http://creativecommons.org/ns#"
   xmlns:rdf="http://www.w3.org/1999/02/22-rdf-syntax-ns#"
   xmlns:svg="http://www.w3.org/2000/svg"
   xmlns="http://www.w3.org/2000/svg"
   xmlns:sodipodi="http://sodipodi.sourceforge.net/DTD/sodipodi-0.dtd"
   xmlns:inkscape="http://www.inkscape.org/namespaces/inkscape"
   width="92.768784mm"
   height="84.271927mm"
   viewBox="0 0 92.768784 84.271927"
   version="1.1"
   id="svg8"
   inkscape:version="1.0.1 (3bc2e813f5, 2020-09-07)"
   sodipodi:docname="sticker.svg"
   inkscape:export-filename="/home/facundo/devel/reps/pyempaq/resources/logo-256.png"
   inkscape:export-xdpi="65.019997"
   inkscape:export-ydpi="65.019997">
  <defs
     id="defs2">
    <inkscape:path-effect
       effect="fillet_chamfer"
       id="path-effect1354"
       is_visible="true"
       lpeversion="1"
       satellites_param="F,0,0,1,0,6.6145833,0,1 @ F,0,0,1,0,6.6145833,0,1 @ F,0,0,1,0,6.6145833,0,1 @ F,0,0,1,0,6.6145833,0,1 @ F,0,0,1,0,6.6145833,0,1 @ F,0,0,1,0,6.6145833,0,1"
       unit="px"
       method="auto"
       mode="F"
       radius="25"
       chamfer_steps="1"
       flexible="false"
       use_knot_distance="true"
       apply_no_radius="true"
       apply_with_radius="true"
       only_selected="false"
       hide_knots="false" />
    <inkscape:path-effect
       effect="fillet_chamfer"
       id="path-effect1327"
       is_visible="true"
       lpeversion="1"
       satellites_param="F,0,0,1,0,6.6145833,0,1 @ F,0,0,1,0,6.6145833,0,1 @ F,0,0,1,0,6.6145833,0,1 @ F,0,0,1,0,6.6145833,0,1 @ F,0,0,1,0,6.6145833,0,1 @ F,0,0,1,0,6.6145833,0,1"
       unit="px"
       method="auto"
       mode="F"
       radius="25"
       chamfer_steps="1"
       flexible="false"
       use_knot_distance="true"
       apply_no_radius="true"
       apply_with_radius="true"
       only_selected="false"
       hide_knots="false" />
    <inkscape:path-effect
       effect="fillet_chamfer"
       id="path-effect1293"
       is_visible="true"
       lpeversion="1"
       satellites_param="F,0,0,1,0,6.6145833,0,1 @ F,0,0,1,0,6.6145833,0,1 @ F,0,0,1,0,6.6145833,0,1 @ F,0,0,1,0,6.6145833,0,1 @ F,0,0,1,0,6.6145833,0,1 @ F,0,0,1,0,6.6145833,0,1"
       unit="px"
       method="auto"
       mode="F"
       radius="25"
       chamfer_steps="1"
       flexible="false"
       use_knot_distance="true"
       apply_no_radius="true"
       apply_with_radius="true"
       only_selected="false"
       hide_knots="false" />
  </defs>
  <sodipodi:namedview
     id="base"
     pagecolor="#ffffff"
     bordercolor="#666666"
     borderopacity="1.0"
     inkscape:pageopacity="0.0"
     inkscape:pageshadow="2"
     inkscape:zoom="1.4142136"
     inkscape:cx="163.88014"
     inkscape:cy="245.51358"
     inkscape:document-units="mm"
     inkscape:current-layer="layer1"
     inkscape:document-rotation="0"
     showgrid="false"
     inkscape:window-width="2560"
     inkscape:window-height="1339"
     inkscape:window-x="0"
     inkscape:window-y="36"
     inkscape:window-maximized="1"
     lock-margins="true"
     fit-margin-top="3"
     fit-margin-left="3"
     fit-margin-right="3"
     fit-margin-bottom="3" />
  <metadata
     id="metadata5">
    <rdf:RDF>
      <cc:Work
         rdf:about="">
        <dc:format>image/svg+xml</dc:format>
        <dc:type
           rdf:resource="http://purl.org/dc/dcmitype/StillImage" />
        <dc:title></dc:title>
      </cc:Work>
    </rdf:RDF>
  </metadata>
  <g
     inkscape:label="Capa 1"
     inkscape:groupmode="layer"
     id="layer1"
     transform="translate(-6.9651051,-6.7067415)">
    <text
       xml:space="preserve"
       style="font-style:normal;font-weight:normal;font-size:7.57639px;line-height:1.25;font-family:sans-serif;fill:#000000;fill-opacity:1;stroke:none;stroke-width:0.189411"
       x="12.09225"
       y="122.61468"
       id="text837-7-2"><tspan
         sodipodi:role="line"
         id="tspan835-4-15"
         x="12.09225"
         y="122.61468"
         style="font-style:normal;font-variant:normal;font-weight:normal;font-stretch:normal;font-size:7.57639px;font-family:'Gentium Book Basic';-inkscape-font-specification:'Gentium Book Basic, Normal';font-variant-ligatures:normal;font-variant-caps:normal;font-variant-numeric:normal;font-variant-east-asian:normal;stroke-width:0.189411">Font: Gentium Book Basic</tspan></text>
    <g
       id="g1191"
       transform="translate(-200.16217,-9.1148631)">
      <path
         style="fill:#000000;stroke-width:0.13007"
         d="m 199.13644,245.35524 c -2.04775,1.15623 -3.54461,0.80894 -4.41484,-1.0243 -0.98238,-2.06949 -2.65732,-3.50307 -5.33116,-4.56292 -1.76316,-0.69886 -2.58699,-1.35508 -3.13504,-2.49721 -0.63571,-1.32478 -1.19996,-1.7071 -2.86175,-1.93908 -1.27275,-0.17768 -1.76457,-0.52405 -2.4618,-1.73374 -0.86236,-1.49617 -1.42118,-1.92911 -3.21136,-2.48795 -1.78519,-0.55728 -2.25107,-0.9656 -3.00974,-2.63792 -0.52001,-1.14621 -1.91097,-2.7425 -2.56133,-2.93942 -0.57315,-0.17353 -0.55526,-0.19818 1.99316,-2.74662 3.13306,-3.13304 3.59587,-3.95087 3.30266,-5.8361 -0.13451,-0.86484 -0.18017,-0.85572 1.26929,-0.25341 5.49203,2.28226 10.51269,5.78165 19.26729,13.4293 3.04731,2.66202 3.36492,2.86377 5.84076,3.71024 3.5164,1.20223 3.93757,2.2184 2.00405,4.83524 -0.94962,1.28524 -5.91559,6.24652 -6.69017,6.68391 z m -41.48043,-8.58489 c -2.71671,0.90964 -5.48019,-2.31655 -4.1121,-4.8006 0.15704,-0.28513 3.10057,-3.27373 8.91459,-9.05104 8.68015,-8.62538 8.68015,-8.62538 9.40869,-8.79721 2.59468,-0.61199 4.98074,2.1973 3.96577,4.66919 -0.40579,0.98824 -17.28004,17.67936 -18.17695,17.97966 z m 17.66585,-18.46871 c 0.7653,-1.95197 -1.50148,-4.17924 -3.56529,-3.50313 -0.92047,0.30155 -17.71947,17.3849 -17.88228,18.18498 -0.37801,1.85757 1.6653,3.78076 3.45869,3.25538 0.88333,-0.25879 17.58846,-16.91595 17.98887,-17.93722 z m -25.66134,22.98201 c -3.05588,1.96589 -7.31446,0.90049 -9.04395,-2.26257 -0.78918,-1.44336 -0.72257,-1.43274 2.20954,0.35236 3.4227,2.08377 4.05381,2.28699 5.53361,1.78191 3.32809,-1.13595 3.74215,-6.89945 0.73961,-10.29512 -1.15226,-1.30312 -0.2741,-1.0357 1.3043,0.39721 3.1824,2.88901 2.82346,7.73181 -0.74311,10.02621 z m -1.54085,-1.51025 c -1.09015,0.46989 -1.33811,0.36645 -6.34434,-2.64686 -6.88217,-4.14245 -6.98609,-4.33087 -5.75673,-10.43753 0.69644,-3.45939 0.96628,-3.93864 2.23302,-3.96577 0.90153,-0.0193 1.04587,0.10323 5.81596,4.93712 4.4311,4.49032 4.4311,4.49032 4.85288,5.39815 1.33262,2.8682 0.96464,5.95391 -0.80079,6.71489 z m -0.61432,-3.87532 c 0,-0.58667 -0.0412,-0.68048 -0.43024,-0.97742 -0.97119,-0.74149 -2.25923,-0.10763 -2.19249,1.07893 0.0997,1.7723 2.62274,1.67465 2.62273,-0.10151 z m -8.19567,-11.10526 c 0,-1.06028 -1.36218,-1.27242 -1.66875,-0.25989 -0.19319,0.6381 0.52801,1.31821 1.12686,1.06262 0.45833,-0.19561 0.5419,-0.31941 0.5419,-0.80274 z m 33.32918,-12.18681 c -1.87909,-0.0302 -1.42763,-0.40868 -11.3659,9.5296 -8.93533,8.93533 -8.93533,8.93533 -9.90278,8.06331 -1.21436,-1.09458 -2.16263,-1.56471 -3.77255,-1.8703 -1.20508,-0.22876 -1.20508,-0.22876 -4.53598,-3.50703 -3.73383,-3.67488 -3.68951,-3.64647 -5.34965,-3.42301 -0.6707,0.0902 -0.6707,0.0902 0.18265,-4.30407 1.01089,-5.2056 0.94531,-5.03127 1.59361,-4.23655 1.53349,1.87985 5.23919,4.27063 8.1082,5.23109 8.34602,2.79403 17.87972,-0.43935 22.59043,-7.66161 0.3994,-0.61232 0.74319,-1.11411 0.76403,-1.11507 0.0622,-0.003 2.04206,2.72382 2.19679,3.0255 0.141,0.27492 0.13429,0.27845 -0.50885,0.26814 z m -6.98786,0.82735 c -11.06204,9.2341 -27.95092,2.67768 -29.81298,-11.57364 -1.39926,-10.70928 6.81494,-20.26771 17.62636,-20.51087 14.42216,-0.32438 23.47344,15.43389 15.91922,27.71534 -0.58117,0.94485 -2.43789,3.32297 -2.82631,3.61994 -0.0573,0.0439 -0.46516,0.38099 -0.90629,0.74923 z m 0.98247,-5.13834 c 6.46425,-9.26434 0.75423,-22.45105 -10.41425,-24.05059 -14.8033,-2.12011 -23.75351,15.69258 -13.18272,26.23625 6.83885,6.82133 18.03594,5.78419 23.59697,-2.18566 z m -3.36925,2.65958 c -0.0941,0.0576 -0.5318,0.36496 -0.97255,0.68298 -7.80198,5.62946 -19.24308,1.86324 -22.3456,-7.35579 -3.78044,-11.23347 6.42838,-22.0856 17.86043,-18.9859 9.59882,2.60263 13.8804,13.87762 8.46736,22.29671 -0.46933,0.72995 -2.60246,3.11282 -3.00964,3.362 z m 2.05698,-4.79837 c 5.14054,-8.73831 -1.2894,-19.83406 -11.48616,-19.82099 -11.16078,0.0143 -17.24733,13.21327 -10.01012,21.70739 5.9257,6.95485 16.85963,5.99534 21.49628,-1.8864 z m -4.90661,3.21714 c -1.104,0.71041 -2.1172,1.17908 -3.25175,1.50413 -0.86944,0.2491 -1.37437,0.27935 -1.1648,0.0698 0.0272,-0.0272 0.60859,-0.94481 1.29188,-2.03905 1.80225,-2.88614 3.01644,-4.47407 5.15994,-6.7482 1.8639,-1.9775 1.8639,-1.9775 2.43532,-1.27842 0.65876,0.80592 0.67592,1.00543 0.20681,2.40411 -0.79323,2.36503 -2.65219,4.78449 -4.6774,6.08767 z m -7.1581,1.93683 c -1.68221,-0.0562 -3.05787,-0.43713 -3.16905,-0.87761 -0.0524,-0.20761 -0.29119,-1.17484 -0.53067,-2.14943 -1.07604,-4.37925 -2.31108,-7.54857 -4.5907,-11.78058 -1.64493,-3.05373 -1.63648,-2.69299 -0.10758,-4.59084 1.08626,-1.34839 0.97684,-1.31014 2.4678,-0.86246 5.25741,1.57859 9.02161,2.17414 14.50262,2.29451 2.28103,0.0501 2.21229,0.0234 2.7224,1.05879 1.16864,2.37216 1.13655,2.50926 -1.0992,4.69776 -3.68622,3.60828 -5.53854,5.99535 -8.51646,10.97511 -0.37852,0.63296 -0.71368,1.17631 -0.74481,1.20745 -0.0311,0.0311 -0.4516,0.0434 -0.93435,0.0272 z m 5.00942,-9.63649 c 2.52557,-5.07423 -4.29425,-9.59254 -8.04352,-5.32904 -3.46339,3.93841 1.12599,9.8571 5.85837,7.55526 0.87261,-0.42444 1.71604,-1.28372 2.18514,-2.22622 z m -3.26103,0.97512 c -1.3498,0.44075 -2.45286,0.16982 -3.46855,-0.85193 -2.65048,-2.66633 0.7196,-7.03015 3.99785,-5.1767 2.45926,1.3904 2.12822,5.16088 -0.5293,6.02863 z m -7.50167,6.81415 c -2.72087,-1.71853 -5.23406,-5.44124 -4.54011,-6.72513 0.59472,-1.10028 1.775,-2.99141 1.92776,-3.08878 0.43266,-0.27575 3.99101,9.9528 3.59884,10.34497 -0.031,0.031 -0.47494,-0.20796 -0.98649,-0.53106 z m -18.35369,10.05261 c -6.06482,-6.06482 -6.07,-6.07068 -5.3457,-6.23485 0.50511,-0.11443 11.26852,10.72812 11.20207,11.28444 -0.0287,0.24001 -0.088,0.47219 -0.1317,0.51595 -0.0439,0.0439 -2.60922,-2.45009 -5.72467,-5.56554 z"
         id="path847" />
      <circle
         style="opacity:1;fill:none;stroke:#000000;stroke-width:1.24025;stroke-miterlimit:4;stroke-dasharray:none;stroke-opacity:1;stop-color:#000000"
         id="path833"
         cx="171.24498"
         cy="210.39883"
         r="50.836021" />
      <text
         xml:space="preserve"
         style="font-style:normal;font-weight:normal;font-size:10.1234px;line-height:1.25;font-family:sans-serif;fill:#000000;fill-opacity:1;stroke:none;stroke-width:0.253088"
         x="176.30077"
         y="198.86427"
         id="text837-7-4"><tspan
           sodipodi:role="line"
           id="tspan835-4-1"
           x="176.30077"
           y="198.86427"
           style="font-style:normal;font-variant:normal;font-weight:normal;font-stretch:normal;font-size:10.1234px;font-family:'Gentium Book Basic';-inkscape-font-specification:'Gentium Book Basic, Normal';font-variant-ligatures:normal;font-variant-caps:normal;font-variant-numeric:normal;font-variant-east-asian:normal;stroke-width:0.253088">PyEmpaq</tspan></text>
      <text
         xml:space="preserve"
         style="font-style:normal;font-variant:normal;font-weight:normal;font-stretch:normal;font-size:5.64033px;line-height:1.25;font-family:'Ubuntu Mono';-inkscape-font-specification:'Ubuntu Mono, Normal';font-variant-ligatures:normal;font-variant-caps:normal;font-variant-numeric:normal;font-variant-east-asian:normal;fill:#000000;fill-opacity:1;stroke:none;stroke-width:0.14101"
         x="183.08092"
         y="206.96992"
         id="text837-7-4-1-9"><tspan
           sodipodi:role="line"
           id="tspan835-4-1-7-7"
           x="183.08092"
           y="206.96992"
           style="font-style:normal;font-variant:normal;font-weight:normal;font-stretch:normal;font-size:5.64033px;font-family:'Ubuntu Mono';-inkscape-font-specification:'Ubuntu Mono, Normal';font-variant-ligatures:normal;font-variant-caps:normal;font-variant-numeric:normal;font-variant-east-asian:normal;stroke-width:0.14101">.rtfd.org</tspan></text>
    </g>
    <g
       id="g1183"
       transform="translate(-355.01781,-15.630719)">
      <path
         sodipodi:type="star"
         style="font-variation-settings:normal;opacity:1;vector-effect:none;fill:none;fill-opacity:1;stroke:#000000;stroke-width:1.40172;stroke-linecap:butt;stroke-linejoin:miter;stroke-miterlimit:4;stroke-dasharray:none;stroke-dashoffset:0;stroke-opacity:1;stop-color:#000000;stop-opacity:1"
         id="path947-5"
         sodipodi:sides="6"
         sodipodi:cx="478.11722"
         sodipodi:cy="127.34775"
         sodipodi:r1="67.724358"
         sodipodi:r2="13.391746"
         sodipodi:arg1="0.81850862"
         sodipodi:arg2="1.3421074"
         inkscape:flatsided="true"
         inkscape:rounded="0"
         inkscape:randomized="0"
         d="m 524.39401,176.79517 -65.96112,15.35316 -46.27679,-49.44742 19.68433,-64.800583 65.96112,-15.353165 46.27678,49.447418 z"
         inkscape:transform-center-x="6.9446758"
         inkscape:transform-center-y="-8.5873349"
         transform="matrix(0.86183391,0.20030145,-0.20030145,0.86183391,74.726675,9.0597286)" />
      <path
         style="fill:#000000;stroke-width:0.13007"
         d="m 496.19589,231.27543 c -2.04775,1.15623 -3.54461,0.80894 -4.41484,-1.0243 -0.98238,-2.06949 -2.65732,-3.50307 -5.33116,-4.56292 -1.76316,-0.69886 -2.58699,-1.35508 -3.13504,-2.49721 -0.63571,-1.32478 -1.19996,-1.7071 -2.86175,-1.93908 -1.27275,-0.17768 -1.76457,-0.52405 -2.4618,-1.73374 -0.86236,-1.49617 -1.42118,-1.92911 -3.21136,-2.48795 -1.78519,-0.55728 -2.25107,-0.9656 -3.00974,-2.63792 -0.52001,-1.14621 -1.91097,-2.7425 -2.56133,-2.93942 -0.57315,-0.17353 -0.55526,-0.19818 1.99316,-2.74662 3.13306,-3.13304 3.59587,-3.95087 3.30266,-5.8361 -0.13451,-0.86484 -0.18017,-0.85572 1.26929,-0.25341 5.49203,2.28226 10.51269,5.78165 19.26729,13.4293 3.04731,2.66202 3.36492,2.86377 5.84076,3.71024 3.5164,1.20223 3.93757,2.2184 2.00405,4.83524 -0.94962,1.28524 -5.91559,6.24652 -6.69017,6.68391 z m -41.48043,-8.58489 c -2.71671,0.90964 -5.48019,-2.31655 -4.1121,-4.8006 0.15704,-0.28513 3.10057,-3.27373 8.91459,-9.05104 8.68015,-8.62538 8.68015,-8.62538 9.40869,-8.79721 2.59468,-0.61199 4.98074,2.1973 3.96577,4.66919 -0.40579,0.98824 -17.28004,17.67936 -18.17695,17.97966 z m 17.66585,-18.46871 c 0.7653,-1.95197 -1.50148,-4.17924 -3.56529,-3.50313 -0.92047,0.30155 -17.71947,17.3849 -17.88228,18.18498 -0.37801,1.85757 1.6653,3.78076 3.45869,3.25538 0.88333,-0.25879 17.58846,-16.91595 17.98887,-17.93722 z m -25.66134,22.98201 c -3.05588,1.96589 -7.31446,0.90049 -9.04395,-2.26257 -0.78918,-1.44336 -0.72257,-1.43274 2.20954,0.35236 3.4227,2.08377 4.05381,2.28699 5.53361,1.78191 3.32809,-1.13595 3.74215,-6.89945 0.73961,-10.29512 -1.15226,-1.30312 -0.2741,-1.0357 1.3043,0.39721 3.1824,2.88901 2.82346,7.73181 -0.74311,10.02621 z m -1.54085,-1.51025 c -1.09015,0.46989 -1.33811,0.36645 -6.34434,-2.64686 -6.88217,-4.14245 -6.98609,-4.33087 -5.75673,-10.43753 0.69644,-3.45939 0.96628,-3.93864 2.23302,-3.96577 0.90153,-0.0193 1.04587,0.10323 5.81596,4.93712 4.4311,4.49032 4.4311,4.49032 4.85288,5.39815 1.33262,2.8682 0.96464,5.95391 -0.80079,6.71489 z m -0.61432,-3.87532 c 0,-0.58667 -0.0412,-0.68048 -0.43024,-0.97742 -0.97119,-0.74149 -2.25923,-0.10763 -2.19249,1.07893 0.0997,1.7723 2.62274,1.67465 2.62273,-0.10151 z m -8.19567,-11.10526 c 0,-1.06028 -1.36218,-1.27242 -1.66875,-0.25989 -0.19319,0.6381 0.52801,1.31821 1.12686,1.06262 0.45833,-0.19561 0.5419,-0.31941 0.5419,-0.80274 z m 33.32918,-12.18681 c -1.87909,-0.0302 -1.42763,-0.40868 -11.3659,9.5296 -8.93533,8.93533 -8.93533,8.93533 -9.90278,8.06331 -1.21436,-1.09458 -2.16263,-1.56471 -3.77255,-1.8703 -1.20508,-0.22876 -1.20508,-0.22876 -4.53598,-3.50703 -3.73383,-3.67488 -3.68951,-3.64647 -5.34965,-3.42301 -0.6707,0.0902 -0.6707,0.0902 0.18265,-4.30407 1.01089,-5.2056 0.94531,-5.03127 1.59361,-4.23655 1.53349,1.87985 5.23919,4.27063 8.1082,5.23109 8.34602,2.79403 17.87972,-0.43935 22.59043,-7.66161 0.3994,-0.61232 0.74319,-1.11411 0.76403,-1.11507 0.0622,-0.003 2.04206,2.72382 2.19679,3.0255 0.141,0.27492 0.13429,0.27845 -0.50885,0.26814 z m -6.98786,0.82735 c -11.06204,9.2341 -27.95092,2.67768 -29.81298,-11.57364 -1.39926,-10.70928 6.81494,-20.26771 17.62636,-20.51087 14.42216,-0.32438 23.47344,15.43389 15.91922,27.71534 -0.58117,0.94485 -2.43789,3.32297 -2.82631,3.61994 -0.0573,0.0439 -0.46516,0.38099 -0.90629,0.74923 z m 0.98247,-5.13834 c 6.46425,-9.26434 0.75423,-22.45105 -10.41425,-24.05059 -14.8033,-2.12011 -23.75351,15.69258 -13.18272,26.23625 6.83885,6.82133 18.03594,5.78419 23.59697,-2.18566 z m -3.36925,2.65958 c -0.0941,0.0576 -0.5318,0.36496 -0.97255,0.68298 -7.80198,5.62946 -19.24308,1.86324 -22.3456,-7.35579 -3.78044,-11.23347 6.42838,-22.0856 17.86043,-18.9859 9.59882,2.60263 13.8804,13.87762 8.46736,22.29671 -0.46933,0.72995 -2.60246,3.11282 -3.00964,3.362 z m 2.05698,-4.79837 c 5.14054,-8.73831 -1.2894,-19.83406 -11.48616,-19.82099 -11.16078,0.0143 -17.24733,13.21327 -10.01012,21.70739 5.9257,6.95485 16.85963,5.99534 21.49628,-1.8864 z m -4.90661,3.21714 c -1.104,0.71041 -2.1172,1.17908 -3.25175,1.50413 -0.86944,0.2491 -1.37437,0.27935 -1.1648,0.0698 0.0272,-0.0272 0.60859,-0.94481 1.29188,-2.03905 1.80225,-2.88614 3.01644,-4.47407 5.15994,-6.7482 1.8639,-1.9775 1.8639,-1.9775 2.43532,-1.27842 0.65876,0.80592 0.67592,1.00543 0.20681,2.40411 -0.79323,2.36503 -2.65219,4.78449 -4.6774,6.08767 z m -7.1581,1.93683 c -1.68221,-0.0562 -3.05787,-0.43713 -3.16905,-0.87761 -0.0524,-0.20761 -0.29119,-1.17484 -0.53067,-2.14943 -1.07604,-4.37925 -2.31108,-7.54857 -4.5907,-11.78058 -1.64493,-3.05373 -1.63648,-2.69299 -0.10758,-4.59084 1.08626,-1.34839 0.97684,-1.31014 2.4678,-0.86246 5.25741,1.57859 9.02161,2.17414 14.50262,2.29451 2.28103,0.0501 2.21229,0.0234 2.7224,1.05879 1.16864,2.37216 1.13655,2.50926 -1.0992,4.69776 -3.68622,3.60828 -5.53854,5.99535 -8.51646,10.97511 -0.37852,0.63296 -0.71368,1.17631 -0.74481,1.20745 -0.0311,0.0311 -0.4516,0.0434 -0.93435,0.0272 z m 5.00942,-9.63649 c 2.52557,-5.07423 -4.29425,-9.59254 -8.04352,-5.32904 -3.46339,3.93841 1.12599,9.8571 5.85837,7.55526 0.87261,-0.42444 1.71604,-1.28372 2.18514,-2.22622 z m -3.26103,0.97512 c -1.3498,0.44075 -2.45286,0.16982 -3.46855,-0.85193 -2.65048,-2.66633 0.7196,-7.03015 3.99785,-5.1767 2.45926,1.3904 2.12822,5.16088 -0.5293,6.02863 z m -7.50167,6.81415 c -2.72087,-1.71853 -5.23406,-5.44124 -4.54011,-6.72513 0.59472,-1.10028 1.775,-2.99141 1.92776,-3.08878 0.43266,-0.27575 3.99101,9.9528 3.59884,10.34497 -0.031,0.031 -0.47494,-0.20796 -0.98649,-0.53106 z m -18.35369,10.05261 c -6.06482,-6.06482 -6.07,-6.07068 -5.3457,-6.23485 0.50511,-0.11443 11.26852,10.72812 11.20207,11.28444 -0.0287,0.24001 -0.088,0.47219 -0.1317,0.51595 -0.0439,0.0439 -2.60922,-2.45009 -5.72467,-5.56554 z"
         id="path847-9-60-5" />
      <text
         xml:space="preserve"
         style="font-style:normal;font-weight:normal;font-size:16.5611px;line-height:1.25;font-family:sans-serif;fill:#000000;fill-opacity:1;stroke:none;stroke-width:0.414031"
         x="431.81494"
         y="245.66187"
         id="text837-7-4-7-5-9"><tspan
           sodipodi:role="line"
           id="tspan835-4-1-4-8-4"
           x="431.81494"
           y="245.66187"
           style="font-style:normal;font-variant:normal;font-weight:normal;font-stretch:normal;font-size:16.5611px;font-family:'Gentium Book Basic';-inkscape-font-specification:'Gentium Book Basic, Normal';font-variant-ligatures:normal;font-variant-caps:normal;font-variant-numeric:normal;font-variant-east-asian:normal;stroke-width:0.414031">PyEmpaq</tspan></text>
      <text
         xml:space="preserve"
         style="font-style:normal;font-variant:normal;font-weight:normal;font-stretch:normal;font-size:7.16846px;line-height:1.25;font-family:'Ubuntu Mono';-inkscape-font-specification:'Ubuntu Mono, Normal';font-variant-ligatures:normal;font-variant-caps:normal;font-variant-numeric:normal;font-variant-east-asian:normal;fill:#000000;fill-opacity:1;stroke:none;stroke-width:0.179214"
         x="447.64789"
         y="256.70831"
         id="text837-7-4-1-9-8-4"><tspan
           sodipodi:role="line"
           id="tspan835-4-1-7-7-8-2"
           x="447.64789"
           y="256.70831"
           style="font-style:normal;font-variant:normal;font-weight:normal;font-stretch:normal;font-size:7.16846px;font-family:'Ubuntu Mono';-inkscape-font-specification:'Ubuntu Mono, Normal';font-variant-ligatures:normal;font-variant-caps:normal;font-variant-numeric:normal;font-variant-east-asian:normal;stroke-width:0.179214">.rtfd.org</tspan></text>
    </g>
    <g
       id="g1335"
       transform="translate(-119.25254,74.13201)">
      <path
         sodipodi:type="star"
         style="font-variation-settings:normal;vector-effect:none;fill:none;fill-opacity:1;stroke:#000000;stroke-width:1.40172;stroke-linecap:butt;stroke-linejoin:miter;stroke-miterlimit:4;stroke-dasharray:none;stroke-dashoffset:0;stroke-opacity:1;stop-color:#000000"
         id="path947-5-1-9"
         sodipodi:sides="6"
         sodipodi:cx="478.11722"
         sodipodi:cy="127.34775"
         sodipodi:r1="67.724358"
         sodipodi:r2="13.391746"
         sodipodi:arg1="0.81850862"
         sodipodi:arg2="1.3421074"
         inkscape:flatsided="true"
         inkscape:rounded="0"
         inkscape:randomized="0"
         inkscape:transform-center-x="4.6443413"
         inkscape:transform-center-y="-5.7428823"
         transform="matrix(0.5763619,0.13395404,-0.13395404,0.5763619,-247.92647,-193.00662)"
         d="m 517.95164,178.2947 -53.07638,12.3541 a 11.456794,11.456794 16.897089 0 1 -10.96219,-3.32996 L 416.67592,147.5304 a 11.456794,11.456794 76.897089 0 1 -2.59727,-11.15851 l 15.83923,-52.142542 a 11.456794,11.456794 136.89709 0 1 8.36492,-7.828552 l 53.07638,-12.354102 a 11.456794,11.456794 16.897089 0 1 10.96218,3.329958 l 37.23716,39.788438 a 11.456794,11.456794 76.897089 0 1 2.59726,11.15851 l -15.83922,52.14255 a 11.456794,11.456794 136.89709 0 1 -8.36492,7.82855 z"
         inkscape:path-effect="#path-effect1327" />
      <path
         style="font-variation-settings:normal;vector-effect:none;fill:#000000;fill-opacity:1;stroke-width:0.0871559;stroke-linecap:butt;stroke-linejoin:miter;stroke-miterlimit:4;stroke-dasharray:none;stroke-dashoffset:0;stroke-opacity:1;stop-color:#000000"
         d="m 32.951445,-41.961956 c -1.372139,0.774753 -2.37514,0.542044 -2.95825,-0.686353 -0.65826,-1.3867 -1.78059,-2.347296 -3.57224,-3.057469 -1.181439,-0.468284 -1.73346,-0.907997 -2.100699,-1.673302 -0.425972,-0.887693 -0.804051,-1.143873 -1.917571,-1.299316 -0.852821,-0.119057 -1.18238,-0.351149 -1.649568,-1.161724 -0.577842,-1.002538 -0.952291,-1.292638 -2.15183,-1.667098 -1.196203,-0.373417 -1.508371,-0.64702 -2.016731,-1.767588 -0.348451,-0.768038 -1.280491,-1.837664 -1.71627,-1.969614 -0.384051,-0.116277 -0.37206,-0.132792 1.33555,-1.840423 2.099369,-2.099353 2.409479,-2.647355 2.21301,-3.910587 -0.0901,-0.579504 -0.120722,-0.573392 0.850511,-0.169804 3.680039,1.529273 7.04423,3.874103 12.91041,8.998553 2.041908,1.783736 2.254729,1.918925 3.913709,2.486118 2.356231,0.805574 2.63844,1.486479 1.34285,3.239942 -0.63631,0.8612 -3.96385,4.185597 -4.48287,4.478678 z M 5.1567044,-47.714421 c -1.820378,0.609521 -3.672099,-1.552249 -2.755389,-3.216733 0.10523,-0.191055 2.07759,-2.193623 5.973389,-6.064818 5.8162906,-5.779598 5.8162906,-5.779598 6.3044706,-5.894734 1.738611,-0.410076 3.33743,1.47234 2.657329,3.128676 -0.271899,0.662189 -11.5788086,11.846386 -12.1797996,12.047609 z M 16.994036,-60.089727 c 0.512799,-1.307954 -1.006092,-2.800376 -2.388989,-2.347338 -0.616781,0.202062 -11.8732616,11.649078 -11.9823516,12.185187 -0.253299,1.244698 1.115861,2.533369 2.317562,2.181328 0.591888,-0.173408 11.7854666,-11.334848 12.0537676,-12.019169 z m -17.19486061,15.399525 c -2.04764999,1.317281 -4.90118999,0.603391 -6.06006999,-1.516075 -0.5288,-0.967153 -0.48417,-0.960036 1.48055,0.236103 2.29344,1.39627 2.716329,1.532441 3.7079,1.194004 2.230041,-0.761164 2.507491,-4.623107 0.49559199,-6.898439 -0.77210199,-0.873178 -0.183672,-0.693989 0.873969,0.266158 2.13241901,1.935837 1.89191101,5.180843 -0.497941,6.718249 z m -1.03246999,-1.01197 c -0.730481,0.314857 -0.896631,0.245547 -4.25115,-1.773579 -4.6115204,-2.775725 -4.6811604,-2.901979 -3.8574,-6.993861 0.46666,-2.31803 0.64747,-2.63916 1.49627,-2.657337 0.60409,-0.01294 0.70081,0.06917 3.8971,3.308207 2.96913999,3.008823 2.96913999,3.008823 3.25175999,3.617132 0.89295,1.921891 0.64638,3.989528 -0.53657999,4.499438 z m -0.411639,-2.596732 c 0,-0.393107 -0.0276,-0.455967 -0.28829,-0.654936 -0.65076,-0.496851 -1.513841,-0.07212 -1.469121,0.722955 0.0668,1.187564 1.757422,1.12213 1.757411,-0.06802 z m -5.491661,-7.441287 c 0,-0.710459 -0.91276,-0.852607 -1.11818,-0.174144 -0.12945,0.427572 0.3538,0.883291 0.75507,0.712029 0.30712,-0.131072 0.36311,-0.214027 0.36311,-0.53789 z m 22.3328396,-8.165997 c -1.25912,-0.02024 -0.956609,-0.273846 -7.6159386,6.385486 -5.98728,5.987283 -5.98728,5.987283 -6.63554101,5.402972 -0.813699,-0.733444 -1.449109,-1.048465 -2.52786899,-1.253231 -0.807481,-0.153284 -0.807481,-0.153284 -3.039411,-2.34995 -2.50193,-2.462424 -2.47223,-2.443387 -3.58464,-2.293654 -0.44941,0.06044 -0.44941,0.06044 0.12239,-2.884022 0.67737,-3.488108 0.63342,-3.371295 1.06783,-2.838778 1.02754,1.259628 3.51062,2.861614 5.433051,3.505189 5.59241,1.872192 11.9806396,-0.294396 15.1371396,-5.133805 0.267619,-0.410296 0.497989,-0.74653 0.511951,-0.747173 0.0417,-0.002 1.368319,1.825146 1.471998,2.027293 0.0945,0.184216 0.09,0.186579 -0.34096,0.179673 z m -4.68235,0.554379 c -7.4123276,6.187482 -18.7290296,1.794232 -19.9767396,-7.755132 -0.9376004,-7.175953 4.56647,-13.580758 11.81087,-13.743692 9.6638396,-0.217357 15.7288206,10.341766 10.6669706,18.571181 -0.389422,0.633115 -1.633551,2.226619 -1.893821,2.425609 -0.0384,0.02942 -0.31169,0.255289 -0.60728,0.502034 z m 0.65832,-3.44304 c 4.331492,-6.207744 0.505392,-15.043745 -6.9782606,-16.115546 -9.919229,-1.42062 -15.9164794,10.515106 -8.833329,17.580089 4.58249899,4.57076 12.085321,3.875803 15.8115896,-1.464543 z m -2.2576276,1.782102 c -0.0631,0.0386 -0.356341,0.244548 -0.651672,0.457643 -5.227859,3.772124 -12.89419,1.248499 -14.97309,-4.928884 -2.53315,-7.527197 4.307461,-14.798869 11.96772,-12.721857 6.4318696,1.743941 9.3008206,9.298958 5.6737116,14.940327 -0.314481,0.489116 -1.7438316,2.085803 -2.0166696,2.252771 z m 1.3783176,-3.215238 c 3.44452,-5.855267 -0.8639786,-13.290182 -7.6965096,-13.281424 -7.47849,0.0096 -11.5569,8.853798 -6.70747,14.545442 3.97061999,4.660228 11.29711,4.017288 14.4039796,-1.264018 z m -3.2877606,2.155705 c -0.739759,0.476023 -1.418669,0.790065 -2.178899,1.00787 -0.582581,0.166915 -0.920919,0.187184 -0.7805,0.04677 0.0182,-0.01823 0.4078,-0.633087 0.865651,-1.366303 1.20763,-1.933912 2.021229,-2.997934 3.457519,-4.521758 1.24894,-1.325061 1.24894,-1.325061 1.6318306,-0.856629 0.44141,0.540022 0.452909,0.673707 0.138578,1.610919 -0.5315176,1.584732 -1.7771476,3.205937 -3.1341796,4.079157 z m -4.796419,1.297809 c -1.127199,-0.03766 -2.04897801,-0.292907 -2.12348001,-0.588059 -0.0351,-0.139113 -0.195119,-0.787223 -0.355589,-1.440266 -0.721022,-2.934398 -1.54857999,-5.05806 -3.07608099,-7.893797 -1.10222,-2.046209 -1.09656,-1.804488 -0.0721,-3.076178 0.72787,-0.903514 0.65455,-0.877884 1.6536,-0.577908 3.522821,1.057764 6.045099,1.456823 9.717751,1.53748 1.52844,0.03357 1.482379,0.01568 1.824189,0.709462 0.7830706,1.58951 0.7615706,1.681376 -0.736539,3.147821 -2.470021,2.417796 -3.7112,4.017297 -5.706611,7.354078 -0.253629,0.424126 -0.47821,0.788208 -0.49907,0.809074 -0.0208,0.02084 -0.302609,0.02908 -0.626081,0.01823 z m 3.35665,-6.45711 c 1.692312,-3.400082 -2.877439,-6.42766 -5.38970901,-3.570823 -2.32070999,2.639005 0.754489,6.604934 3.92551001,5.062543 0.58471,-0.284404 1.149868,-0.86018 1.464199,-1.49172 z m -2.18511,0.653397 c -0.904459,0.295333 -1.643589,0.113791 -2.324168,-0.570851 -1.77600301,-1.786624 0.482179,-4.710683 2.67884,-3.468745 1.64787,0.931664 1.426048,3.458144 -0.354672,4.039596 z m -5.02663,4.565949 c -1.82317,-1.151533 -3.50718,-3.646005 -3.04219,-4.506299 0.3985,-0.737263 1.18937,-2.00445 1.29173,-2.069695 0.28991,-0.184771 2.67424999,6.66906 2.41147099,6.931841 -0.0208,0.02077 -0.31824099,-0.139348 -0.66101099,-0.355847 z m -12.2982404,6.735938 c -4.06384,-4.063844 -4.06731,-4.067773 -3.58198,-4.177776 0.33846,-0.07668 7.5506804,7.188576 7.50615,7.56135 -0.0192,0.160821 -0.059,0.316399 -0.0883,0.34572 -0.0294,0.02942 -1.74835,-1.641729 -3.83592,-3.729294 z"
         id="path847-9-60-9-4" />
      <text
         xml:space="preserve"
         style="font-style:normal;font-weight:normal;font-size:11.0971px;line-height:1.25;font-family:sans-serif;font-variation-settings:normal;vector-effect:none;fill:#000000;fill-opacity:1;stroke:none;stroke-width:0.0871559;stroke-linecap:butt;stroke-linejoin:miter;stroke-miterlimit:4;stroke-dasharray:none;stroke-dashoffset:0;stroke-opacity:1;stop-color:#000000"
         x="-10.188205"
         y="-32.322056"
         id="text837-7-4-7-5-3-0"><tspan
           sodipodi:role="line"
           id="tspan835-4-1-4-8-47-9"
           x="-10.188205"
           y="-32.322056"
           style="font-style:normal;font-variant:normal;font-weight:normal;font-stretch:normal;font-size:11.0971px;font-family:'Gentium Book Basic';-inkscape-font-specification:'Gentium Book Basic, Normal';font-variant-ligatures:normal;font-variant-caps:normal;font-variant-numeric:normal;font-variant-east-asian:normal;font-variation-settings:normal;vector-effect:none;fill:#000000;fill-opacity:1;stroke-width:0.0871559;stroke-linecap:butt;stroke-linejoin:miter;stroke-miterlimit:4;stroke-dasharray:none;stroke-dashoffset:0;stroke-opacity:1;stop-color:#000000;stop-opacity:1">PyEmpaq</tspan></text>
      <text
         xml:space="preserve"
         style="font-style:normal;font-variant:normal;font-weight:normal;font-stretch:normal;font-size:4.80335px;line-height:1.25;font-family:'Ubuntu Mono';-inkscape-font-specification:'Ubuntu Mono, Normal';font-variant-ligatures:normal;font-variant-caps:normal;font-variant-numeric:normal;font-variant-east-asian:normal;font-variation-settings:normal;vector-effect:none;fill:#000000;fill-opacity:1;stroke:none;stroke-width:0.0871559;stroke-linecap:butt;stroke-linejoin:miter;stroke-miterlimit:4;stroke-dasharray:none;stroke-dashoffset:0;stroke-opacity:1;stop-color:#000000"
         x="0.42095616"
         y="-24.920176"
         id="text837-7-4-1-9-8-3-5"><tspan
           sodipodi:role="line"
           id="tspan835-4-1-7-7-8-1-1"
           x="0.42095616"
           y="-24.920176"
           style="font-style:normal;font-variant:normal;font-weight:normal;font-stretch:normal;font-size:4.80335px;font-family:'Ubuntu Mono';-inkscape-font-specification:'Ubuntu Mono, Normal';font-variant-ligatures:normal;font-variant-caps:normal;font-variant-numeric:normal;font-variant-east-asian:normal;font-variation-settings:normal;vector-effect:none;fill:#000000;fill-opacity:1;stroke-width:0.0871559;stroke-linecap:butt;stroke-linejoin:miter;stroke-miterlimit:4;stroke-dasharray:none;stroke-dashoffset:0;stroke-opacity:1;stop-color:#000000;stop-opacity:1">.rtfd.org</tspan></text>
    </g>
    <g
       id="g1374">
      <path
         sodipodi:type="star"
         style="font-variation-settings:normal;vector-effect:none;fill:none;fill-opacity:1;stroke:#000000;stroke-width:1.40172;stroke-linecap:butt;stroke-linejoin:miter;stroke-miterlimit:4;stroke-dasharray:none;stroke-dashoffset:0;stroke-opacity:1;stop-color:#000000"
         id="path947-5-1"
         sodipodi:sides="6"
         sodipodi:cx="478.11722"
         sodipodi:cy="127.34775"
         sodipodi:r1="67.724358"
         sodipodi:r2="13.391746"
         sodipodi:arg1="0.81850862"
         sodipodi:arg2="1.3421074"
         inkscape:flatsided="true"
         inkscape:rounded="0"
         inkscape:randomized="0"
         inkscape:transform-center-x="4.6443413"
         inkscape:transform-center-y="-5.7428823"
         transform="matrix(0.57636191,0.13395404,-0.13395404,0.57636191,-205.1589,-88.627993)"
         d="m 517.95164,178.2947 -53.07638,12.3541 a 11.456794,11.456794 16.897089 0 1 -10.96219,-3.32996 L 416.67592,147.5304 a 11.456794,11.456794 76.897089 0 1 -2.59727,-11.15851 l 15.83923,-52.142542 a 11.456794,11.456794 136.89709 0 1 8.36492,-7.828552 l 53.07638,-12.354102 a 11.456794,11.456794 16.897089 0 1 10.96218,3.329958 l 37.23716,39.788438 a 11.456794,11.456794 76.897089 0 1 2.59726,11.15851 l -15.83922,52.14255 a 11.456794,11.456794 136.89709 0 1 -8.36492,7.82855 z"
         inkscape:path-effect="#path-effect1293" />
      <path
         style="font-variation-settings:normal;vector-effect:none;fill:#000000;fill-opacity:1;stroke-width:0.0871558;stroke-linecap:butt;stroke-linejoin:miter;stroke-miterlimit:4;stroke-dasharray:none;stroke-dashoffset:0;stroke-opacity:1;stop-color:#000000"
         d="m 75.719008,62.416679 c -1.37214,0.774753 -2.37514,0.542045 -2.95825,-0.686352 -0.65826,-1.3867 -1.78059,-2.347297 -3.57224,-3.057469 -1.18144,-0.468284 -1.73346,-0.907997 -2.1007,-1.673302 -0.42597,-0.887694 -0.80405,-1.143875 -1.91757,-1.299317 -0.85282,-0.119058 -1.18238,-0.35115 -1.64957,-1.161725 -0.57784,-1.002537 -0.95229,-1.292636 -2.15183,-1.667097 -1.1962,-0.373416 -1.50837,-0.647019 -2.01673,-1.767588 -0.34845,-0.768039 -1.28049,-1.837663 -1.71627,-1.969613 -0.38405,-0.116277 -0.37206,-0.132794 1.33555,-1.840424 2.09937,-2.099352 2.40948,-2.647354 2.21301,-3.910588 -0.0901,-0.579502 -0.12072,-0.573391 0.85051,-0.169802 3.68004,1.529271 7.04423,3.874102 12.91041,8.998553 2.04191,1.783736 2.25473,1.918923 3.91371,2.486116 2.35623,0.805576 2.63844,1.48648 1.34285,3.239943 -0.63631,0.861199 -3.96385,4.185597 -4.48287,4.478678 z m -27.79474,-5.752466 c -1.82038,0.609521 -3.6721,-1.552248 -2.75539,-3.216732 0.10523,-0.191056 2.07759,-2.193624 5.97339,-6.064818 5.81629,-5.779597 5.81629,-5.779597 6.30447,-5.894735 1.73861,-0.410075 3.33743,1.472342 2.65733,3.128678 -0.2719,0.662189 -11.57881,11.846385 -12.1798,12.047607 z m 11.83733,-12.375304 c 0.5128,-1.307954 -1.00609,-2.800378 -2.38899,-2.347338 -0.61678,0.20206 -11.87326,11.649077 -11.98235,12.185186 -0.2533,1.244699 1.11586,2.533369 2.31756,2.181328 0.59189,-0.173407 11.78547,-11.334848 12.05377,-12.019169 z m -17.19486,15.399525 c -2.04765,1.317281 -4.90119,0.60339 -6.06007,-1.516077 -0.5288,-0.967151 -0.48417,-0.960035 1.48055,0.236105 2.29344,1.396269 2.71633,1.53244 3.7079,1.194002 2.23004,-0.761164 2.50749,-4.623105 0.49559,-6.898437 -0.7721,-0.87318 -0.18367,-0.69399 0.87397,0.266158 2.13242,1.935835 1.89191,5.180843 -0.49794,6.718249 z m -1.03247,-1.011971 c -0.73048,0.314858 -0.89663,0.245546 -4.25115,-1.773578 -4.61152,-2.775726 -4.68116,-2.901981 -3.8574,-6.993862 0.46666,-2.318029 0.64747,-2.639159 1.49627,-2.657338 0.60409,-0.01293 0.70081,0.06917 3.8971,3.308209 2.96914,3.008823 2.96914,3.008823 3.25176,3.617131 0.89295,1.921891 0.64638,3.989529 -0.53658,4.499438 z m -0.41164,-2.596731 c 0,-0.393109 -0.0276,-0.455968 -0.28829,-0.654938 -0.65076,-0.49685 -1.51384,-0.07212 -1.46912,0.722957 0.0668,1.187563 1.75742,1.12213 1.75741,-0.06802 z m -5.49166,-7.441287 c 0,-0.71046 -0.91276,-0.852608 -1.11818,-0.174144 -0.12945,0.427571 0.3538,0.883291 0.75507,0.712029 0.30712,-0.131073 0.36311,-0.214027 0.36311,-0.537891 z m 22.33284,-8.165999 c -1.25912,-0.02024 -0.95661,-0.273844 -7.61594,6.385486 -5.98728,5.987285 -5.98728,5.987285 -6.63554,5.402972 -0.8137,-0.733444 -1.44911,-1.048464 -2.52787,-1.25323 -0.80748,-0.153285 -0.80748,-0.153285 -3.03941,-2.349951 -2.50193,-2.462422 -2.47223,-2.443385 -3.58464,-2.293652 -0.44941,0.06044 -0.44941,0.06044 0.12239,-2.884022 0.67737,-3.488109 0.63342,-3.371296 1.06783,-2.838779 1.02754,1.259628 3.51062,2.861615 5.43305,3.505189 5.59241,1.872192 11.98064,-0.294395 15.13714,-5.133805 0.26762,-0.410296 0.49799,-0.74653 0.51195,-0.747173 0.0417,-0.002 1.36832,1.825146 1.472,2.027293 0.0945,0.184215 0.09,0.18658 -0.34096,0.179672 z m -4.68235,0.554381 c -7.41233,6.187481 -18.72903,1.79423 -19.97674,-7.755133 -0.9376,-7.175953 4.56647,-13.580758 11.81087,-13.743692 9.66384,-0.217357 15.72882,10.341766 10.66697,18.571181 -0.38942,0.633115 -1.63355,2.226618 -1.89382,2.425609 -0.0384,0.02942 -0.31169,0.255289 -0.60728,0.502035 z m 0.65832,-3.443041 c 4.33149,-6.207744 0.50539,-15.043745 -6.97826,-16.115546 -9.91923,-1.42062 -15.91648,10.515106 -8.83333,17.580089 4.5825,4.570759 12.08532,3.875804 15.81159,-1.464543 z m -2.25763,1.782102 c -0.0631,0.0386 -0.35634,0.244548 -0.65167,0.457643 -5.22786,3.772125 -12.89419,1.248499 -14.97309,-4.928884 -2.53315,-7.527197 4.30746,-14.798869 11.96772,-12.721857 6.43187,1.743941 9.30082,9.298958 5.67371,14.940327 -0.31448,0.489116 -1.74383,2.085803 -2.01667,2.252771 z m 1.37832,-3.215238 c 3.44452,-5.855267 -0.86398,-13.290182 -7.69651,-13.281424 -7.47849,0.0096 -11.5569,8.853798 -6.70747,14.545442 3.97062,4.660227 11.29711,4.017289 14.40398,-1.264018 z m -3.28776,2.155705 c -0.73976,0.476023 -1.41867,0.790065 -2.1789,1.00787 -0.58258,0.166915 -0.92092,0.187184 -0.7805,0.04677 0.0182,-0.01823 0.4078,-0.633087 0.86565,-1.366303 1.20763,-1.933912 2.02123,-2.997934 3.45752,-4.521758 1.24894,-1.325061 1.24894,-1.325061 1.63183,-0.856629 0.44141,0.540022 0.45291,0.673707 0.13858,1.610919 -0.53152,1.584732 -1.77715,3.205937 -3.13418,4.079157 z m -4.79642,1.297809 c -1.1272,-0.03766 -2.04898,-0.292907 -2.12348,-0.588059 -0.0351,-0.139113 -0.19512,-0.787223 -0.35559,-1.440266 -0.72102,-2.934398 -1.54858,-5.05806 -3.07608,-7.893797 -1.10222,-2.046209 -1.09656,-1.804488 -0.0721,-3.076178 0.72787,-0.903514 0.65455,-0.877884 1.6536,-0.577908 3.52282,1.057764 6.0451,1.456823 9.71775,1.53748 1.52844,0.03357 1.48238,0.01568 1.82419,0.709462 0.78307,1.58951 0.76157,1.681376 -0.73654,3.147821 -2.47002,2.417796 -3.7112,4.017297 -5.70661,7.354078 -0.25363,0.424126 -0.47821,0.788208 -0.49907,0.809074 -0.0208,0.02084 -0.30261,0.02908 -0.62608,0.01823 z m 3.35665,-6.45711 c 1.69231,-3.400082 -2.87744,-6.42766 -5.38971,-3.570823 -2.32071,2.639005 0.75449,6.604934 3.92551,5.062543 0.58471,-0.284404 1.14987,-0.86018 1.4642,-1.49172 z m -2.18511,0.653397 c -0.90446,0.295333 -1.64359,0.113791 -2.32417,-0.570851 -1.776,-1.786624 0.48218,-4.710683 2.67884,-3.468745 1.64787,0.931664 1.42605,3.458144 -0.35467,4.039596 z m -5.02663,4.565949 c -1.82317,-1.151533 -3.50718,-3.646005 -3.04219,-4.506299 0.3985,-0.737263 1.18937,-2.00445 1.29173,-2.069695 0.28991,-0.184771 2.67425,6.66906 2.41147,6.931841 -0.0208,0.02077 -0.31824,-0.139348 -0.66101,-0.355847 z m -12.29824,6.735939 c -4.06384,-4.063846 -4.06731,-4.067773 -3.58198,-4.177778 0.33846,-0.07668 7.55068,7.188577 7.50615,7.56135 -0.0192,0.160823 -0.059,0.3164 -0.0883,0.345722 -0.0294,0.02942 -1.74835,-1.641729 -3.83592,-3.729294 z"
         id="path847-9-60-9" />
      <text
         xml:space="preserve"
         style="font-style:normal;font-weight:normal;font-size:11.0971px;line-height:1.25;font-family:sans-serif;font-variation-settings:normal;vector-effect:none;fill:#000000;fill-opacity:1;stroke:none;stroke-width:0.0871558;stroke-linecap:butt;stroke-linejoin:miter;stroke-miterlimit:4;stroke-dasharray:none;stroke-dashoffset:0;stroke-opacity:1;stop-color:#000000"
         x="32.579357"
         y="72.05658"
         id="text837-7-4-7-5-3"><tspan
           sodipodi:role="line"
           id="tspan835-4-1-4-8-47"
           x="32.579357"
           y="72.05658"
           style="font-style:normal;font-variant:normal;font-weight:normal;font-stretch:normal;font-size:11.0971px;font-family:'Gentium Book Basic';-inkscape-font-specification:'Gentium Book Basic, Normal';font-variant-ligatures:normal;font-variant-caps:normal;font-variant-numeric:normal;font-variant-east-asian:normal;font-variation-settings:normal;vector-effect:none;fill:#000000;fill-opacity:1;stroke-width:0.0871558;stroke-linecap:butt;stroke-linejoin:miter;stroke-miterlimit:4;stroke-dasharray:none;stroke-dashoffset:0;stroke-opacity:1;stop-color:#000000;stop-opacity:1">PyEmpaq</tspan></text>
      <text
         xml:space="preserve"
         style="font-style:normal;font-variant:normal;font-weight:normal;font-stretch:normal;font-size:4.80336px;line-height:1.25;font-family:'Ubuntu Mono';-inkscape-font-specification:'Ubuntu Mono, Normal';font-variant-ligatures:normal;font-variant-caps:normal;font-variant-numeric:normal;font-variant-east-asian:normal;font-variation-settings:normal;vector-effect:none;fill:#000000;fill-opacity:1;stroke:none;stroke-width:0.0871558;stroke-linecap:butt;stroke-linejoin:miter;stroke-miterlimit:4;stroke-dasharray:none;stroke-dashoffset:0;stroke-opacity:1;stop-color:#000000"
         x="43.188519"
         y="79.458458"
         id="text837-7-4-1-9-8-3"><tspan
           sodipodi:role="line"
           id="tspan835-4-1-7-7-8-1"
           x="43.188519"
           y="79.458458"
           style="font-style:normal;font-variant:normal;font-weight:normal;font-stretch:normal;font-size:4.80336px;font-family:'Ubuntu Mono';-inkscape-font-specification:'Ubuntu Mono, Normal';font-variant-ligatures:normal;font-variant-caps:normal;font-variant-numeric:normal;font-variant-east-asian:normal;font-variation-settings:normal;vector-effect:none;fill:#000000;fill-opacity:1;stroke-width:0.0871558;stroke-linecap:butt;stroke-linejoin:miter;stroke-miterlimit:4;stroke-dasharray:none;stroke-dashoffset:0;stroke-opacity:1;stop-color:#000000;stop-opacity:1">.rtfd.org</tspan></text>
      <path
         id="path947-5-1-0"
         style="font-variation-settings:normal;vector-effect:none;fill:none;fill-opacity:1;stroke:#ff0000;stroke-width:0.3;stroke-linecap:butt;stroke-linejoin:miter;stroke-miterlimit:4;stroke-dasharray:none;stroke-dashoffset:0;stroke-opacity:1;stop-color:#000000"
         inkscape:transform-center-x="4.6443413"
         inkscape:transform-center-y="-5.7428823"
         d="M 68.898438,9.8632812 C 57.826464,9.9113301 46.751384,9.7962969 35.681641,10 31.626933,10.506386 28.267876,13.561488 26.633687,17.201891 21.35115,26.460465 15.861209,35.607663 10.7961,44.984676 c -1.4669815,3.736197 -0.429149,8.049203 1.851575,11.228869 5.275683,9.108325 10.488535,18.251468 15.897247,27.278643 2.457324,3.270475 6.785345,4.675743 10.762109,4.267528 10.63746,-0.04105 21.282032,0.107816 31.914567,-0.159492 4.007331,-0.573741 7.276874,-3.64427 8.888953,-7.249324 5.266937,-9.183811 10.674573,-18.292879 15.748574,-27.579376 1.523624,-3.757642 0.50892,-8.131725 -1.799823,-11.34246 C 88.726521,32.27498 83.544633,23.029724 78.033944,13.985424 75.879698,11.250834 72.354272,9.7445397 68.898438,9.8632812 Z" />
    </g>
  </g>
</svg>
